<svg id="svg" version="1.1" xmlns="http://www.w3.org/2000/svg" xmlns:xlink="http://www.w3.org/1999/xlink" width="400" height="264.51612903225805" viewBox="0, 0, 400,264.51612903225805"><g id="svgg"><path id="path0" d="M194.631 1.125 C 193.946 1.781,193.386 2.397,193.386 2.494 C 193.386 2.590,193.118 2.956,192.791 3.306 C 192.464 3.656,192.053 4.097,191.878 4.286 C 191.703 4.475,191.405 4.765,191.216 4.930 C 191.028 5.095,190.397 5.777,189.815 6.446 C 189.233 7.115,187.834 8.634,186.706 9.823 C 185.579 11.011,184.656 12.092,184.656 12.225 C 184.656 12.359,183.585 13.524,182.275 14.815 C 180.966 16.106,179.894 17.280,179.894 17.425 C 179.894 17.569,178.882 18.692,177.646 19.921 C 176.409 21.149,175.397 22.235,175.397 22.333 C 175.397 22.431,175.129 22.797,174.802 23.147 C 174.474 23.498,174.063 23.939,173.888 24.127 C 173.713 24.316,173.416 24.606,173.227 24.771 C 173.038 24.936,172.407 25.618,171.825 26.287 C 171.243 26.955,169.726 28.599,168.452 29.940 C 167.179 31.281,166.138 32.470,166.138 32.582 C 166.138 32.695,165.126 33.803,163.889 35.045 C 162.652 36.288,161.640 37.416,161.640 37.553 C 161.640 37.690,160.569 38.867,159.259 40.169 C 157.950 41.471,156.878 42.618,156.878 42.717 C 156.878 42.817,156.432 43.358,155.886 43.918 C 153.138 46.743,152.381 47.566,152.381 47.728 C 152.381 47.825,151.429 48.862,150.265 50.032 C 149.101 51.202,148.148 52.265,148.148 52.394 C 148.148 52.523,147.136 53.644,145.899 54.887 C 144.663 56.129,143.651 57.315,143.651 57.523 C 143.651 57.731,143.439 57.968,143.181 58.050 C 142.922 58.132,142.535 58.448,142.321 58.752 C 142.107 59.056,141.260 59.992,140.439 60.833 C 139.619 61.673,138.867 62.616,138.768 62.927 C 138.669 63.238,138.483 63.492,138.354 63.492 C 138.225 63.492,137.846 63.786,137.512 64.146 C 136.881 64.826,136.805 64.904,135.714 65.985 C 134.870 66.822,134.392 67.400,134.392 67.580 C 134.392 67.658,133.320 68.814,132.011 70.149 C 130.701 71.484,129.630 72.663,129.630 72.769 C 129.630 72.875,128.618 73.988,127.381 75.242 C 126.144 76.495,125.132 77.584,125.132 77.661 C 125.132 77.839,124.650 78.420,123.810 79.253 C 123.446 79.613,123.029 80.032,122.884 80.183 C 122.738 80.334,122.173 80.891,121.627 81.421 C 121.081 81.952,120.635 82.599,120.635 82.859 C 120.635 83.120,120.521 83.333,120.382 83.333 C 120.244 83.333,119.824 83.661,119.449 84.061 C 119.075 84.461,118.647 84.907,118.498 85.053 C 118.350 85.198,117.966 85.605,117.646 85.956 C 117.325 86.307,116.796 86.834,116.468 87.128 C 116.141 87.421,115.873 87.754,115.873 87.868 C 115.873 87.981,114.980 88.972,113.889 90.071 C 112.798 91.169,111.905 92.188,111.905 92.334 C 111.905 92.481,110.833 93.662,109.524 94.959 C 108.214 96.256,107.143 97.391,107.143 97.480 C 107.143 97.710,106.730 98.176,104.563 100.383 C 103.509 101.459,102.646 102.412,102.646 102.501 C 102.646 102.591,101.809 103.523,100.786 104.573 C 99.763 105.622,98.692 106.724,98.405 107.020 C 98.118 107.316,97.884 107.648,97.884 107.759 C 97.884 107.869,96.872 108.978,95.635 110.223 C 94.398 111.468,93.386 112.588,93.386 112.712 C 93.386 112.836,92.324 114.011,91.026 115.323 C 89.727 116.635,88.590 117.944,88.499 118.232 C 88.408 118.520,88.127 118.821,87.876 118.901 C 87.625 118.981,87.244 119.295,87.030 119.599 C 86.816 119.903,86.075 120.730,85.384 121.437 C 84.692 122.143,84.127 122.793,84.127 122.880 C 84.127 123.058,83.640 123.674,83.121 124.153 C 82.931 124.328,82.515 124.740,82.195 125.069 C 81.875 125.398,81.167 126.102,80.622 126.633 C 80.076 127.164,79.630 127.704,79.630 127.833 C 79.630 127.961,78.677 129.015,77.513 130.175 C 76.349 131.334,75.397 132.382,75.397 132.503 C 75.397 132.624,74.335 133.808,73.037 135.135 C 71.739 136.462,70.602 137.784,70.510 138.072 C 70.418 138.361,70.111 138.671,69.828 138.761 C 69.544 138.851,69.312 139.026,69.312 139.150 C 69.312 139.274,68.598 140.090,67.725 140.963 C 66.852 141.836,66.138 142.624,66.138 142.715 C 66.138 142.898,65.659 143.506,65.133 143.994 C 64.691 144.403,63.715 145.379,63.306 145.821 C 63.131 146.009,62.834 146.307,62.645 146.482 C 62.136 146.953,61.640 147.576,61.640 147.744 C 61.640 147.826,60.569 148.953,59.259 150.250 C 57.950 151.547,56.878 152.682,56.878 152.771 C 56.878 153.008,56.431 153.513,54.299 155.686 C 53.244 156.761,52.381 157.818,52.381 158.035 C 52.381 158.252,52.143 158.506,51.852 158.598 C 51.561 158.690,51.323 158.871,51.323 159.001 C 51.323 159.130,51.031 159.508,50.674 159.842 C 50.317 160.176,49.871 160.594,49.682 160.771 C 49.493 160.947,48.981 161.516,48.545 162.034 C 47.825 162.889,44.952 166.000,43.647 167.337 C 43.358 167.633,43.122 167.954,43.122 168.051 C 43.122 168.147,42.110 169.261,40.873 170.526 C 39.636 171.791,38.624 172.932,38.624 173.062 C 38.624 173.193,37.672 174.229,36.508 175.365 C 35.344 176.501,34.392 177.514,34.392 177.616 C 34.392 177.718,34.124 178.088,33.796 178.438 C 33.469 178.789,33.058 179.230,32.883 179.418 C 32.708 179.607,32.411 179.897,32.222 180.062 C 32.033 180.227,31.402 180.912,30.820 181.583 C 29.828 182.727,26.829 185.978,25.657 187.179 C 25.369 187.475,25.132 187.807,25.132 187.917 C 25.132 188.028,24.120 189.123,22.884 190.351 C 21.647 191.580,20.635 192.699,20.635 192.839 C 20.635 192.978,19.563 194.158,18.254 195.460 C 16.944 196.762,15.873 197.904,15.873 197.999 C 15.873 198.188,15.402 198.791,14.868 199.285 C 13.561 200.496,11.376 202.827,11.376 203.011 C 11.376 203.096,10.304 204.267,8.995 205.614 C 7.685 206.960,6.614 208.147,6.614 208.252 C 6.614 208.357,5.602 209.462,4.365 210.707 C 3.128 211.952,2.116 213.139,2.116 213.346 C 2.116 213.552,1.878 213.797,1.587 213.889 C 1.296 213.981,1.058 214.150,1.058 214.263 C 1.058 214.376,0.820 214.744,0.529 215.079 C 0.238 215.415,-0.000 216.031,0.000 216.448 C 0.000 217.252,0.869 218.278,4.598 221.878 C 5.270 222.527,5.820 223.162,5.820 223.290 C 5.820 223.417,8.618 226.329,12.037 229.759 C 15.456 233.190,18.254 236.057,18.254 236.131 C 18.254 236.310,20.189 238.348,23.280 241.427 C 28.176 246.302,30.159 248.357,30.159 248.555 C 30.159 248.652,31.260 249.849,32.606 251.216 C 33.952 252.583,35.185 253.851,35.346 254.033 C 35.507 254.216,35.923 254.629,36.272 254.951 C 36.620 255.274,37.166 255.809,37.486 256.142 C 37.806 256.474,38.222 256.892,38.412 257.069 C 38.602 257.247,38.892 257.528,39.058 257.694 C 39.224 257.860,39.640 258.274,39.984 258.615 C 40.327 258.955,40.752 259.388,40.926 259.577 C 41.101 259.766,41.399 260.068,41.588 260.248 C 41.777 260.428,42.160 260.815,42.440 261.108 C 43.130 261.829,43.365 261.780,43.690 260.847 C 43.843 260.410,44.069 260.053,44.194 260.053 C 44.318 260.053,44.694 259.761,45.028 259.404 C 46.065 258.296,46.272 258.078,46.583 257.768 C 47.396 256.955,48.148 256.095,48.148 255.979 C 48.148 255.907,49.160 254.813,50.397 253.548 C 51.634 252.284,52.646 251.144,52.646 251.017 C 52.646 250.890,53.717 249.724,55.026 248.427 C 56.336 247.130,57.407 245.996,57.407 245.907 C 57.407 245.676,57.821 245.211,59.987 243.003 C 61.042 241.928,61.905 240.976,61.905 240.888 C 61.905 240.800,62.615 239.987,63.482 239.081 C 65.751 236.712,66.138 236.280,66.138 236.114 C 66.138 236.033,67.149 234.943,68.386 233.692 C 69.623 232.441,70.635 231.311,70.635 231.181 C 70.635 231.051,71.706 229.883,73.016 228.586 C 74.325 227.289,75.397 226.154,75.397 226.065 C 75.397 225.885,75.878 225.274,76.402 224.789 C 77.763 223.528,79.894 221.245,79.894 221.047 C 79.894 220.895,80.581 220.093,81.460 219.217 C 81.627 219.051,82.027 218.645,82.350 218.315 C 82.672 217.985,83.323 217.341,83.796 216.884 C 84.269 216.427,84.656 215.944,84.656 215.812 C 84.656 215.679,85.668 214.559,86.905 213.322 C 88.142 212.085,89.153 210.972,89.153 210.849 C 89.153 210.726,90.165 209.617,91.402 208.386 C 92.639 207.155,93.651 205.981,93.651 205.778 C 93.651 205.574,93.905 205.233,94.215 205.019 C 94.526 204.805,94.913 204.476,95.075 204.288 C 95.238 204.100,95.936 203.372,96.627 202.670 C 97.318 201.968,97.884 201.313,97.884 201.214 C 97.884 201.115,98.168 200.729,98.516 200.355 C 99.405 199.400,99.493 199.312,100.532 198.348 C 101.042 197.875,101.816 197.015,102.251 196.437 C 102.686 195.860,103.965 194.461,105.093 193.329 C 106.220 192.196,107.143 191.150,107.143 191.004 C 107.143 190.858,108.155 189.738,109.392 188.515 C 110.628 187.292,111.640 186.128,111.640 185.929 C 111.640 185.730,111.894 185.391,112.205 185.177 C 112.515 184.963,112.902 184.631,113.065 184.439 C 113.227 184.247,113.645 183.831,113.993 183.513 C 114.341 183.196,114.758 182.782,114.919 182.593 C 115.080 182.404,115.479 181.963,115.807 181.613 C 116.134 181.263,116.402 180.903,116.402 180.813 C 116.402 180.723,116.968 180.082,117.659 179.389 C 119.368 177.675,120.899 175.980,120.899 175.802 C 120.899 175.721,121.971 174.567,123.280 173.237 C 124.590 171.908,125.661 170.728,125.661 170.616 C 125.661 170.505,126.673 169.399,127.910 168.160 C 129.147 166.920,130.159 165.833,130.159 165.745 C 130.159 165.572,130.690 164.989,132.950 162.682 C 133.743 161.872,134.392 161.119,134.392 161.007 C 134.392 160.800,135.395 159.711,137.603 157.523 C 138.436 156.698,138.889 156.142,138.889 155.947 C 138.889 155.858,139.960 154.730,141.270 153.439 C 142.579 152.148,143.651 150.974,143.651 150.829 C 143.651 150.685,144.663 149.562,145.899 148.333 C 147.136 147.105,148.148 146.019,148.148 145.921 C 148.148 145.763,148.384 145.484,149.662 144.126 C 150.258 143.493,150.656 143.094,151.653 142.124 C 152.199 141.593,152.646 140.946,152.646 140.685 C 152.646 140.425,152.759 140.212,152.897 140.212 C 153.112 140.212,153.925 139.428,156.887 136.366 C 157.173 136.070,157.407 135.747,157.407 135.648 C 157.407 135.549,158.419 134.451,159.656 133.209 C 160.893 131.966,161.905 130.838,161.905 130.702 C 161.905 130.566,162.962 129.396,164.253 128.103 C 165.545 126.810,166.682 125.500,166.780 125.191 C 166.878 124.883,167.164 124.565,167.415 124.485 C 167.666 124.406,168.047 124.086,168.261 123.775 C 168.475 123.465,169.097 122.790,169.643 122.277 C 170.188 121.764,170.635 121.246,170.635 121.127 C 170.635 121.008,171.706 119.815,173.016 118.475 C 174.325 117.135,175.397 115.946,175.397 115.833 C 175.397 115.719,176.409 114.610,177.646 113.367 C 178.882 112.125,179.894 110.939,179.894 110.731 C 179.894 110.523,180.132 110.278,180.423 110.185 C 180.714 110.093,180.952 109.917,180.952 109.794 C 180.952 109.672,181.771 108.748,182.772 107.741 C 183.773 106.734,184.674 105.652,184.774 105.336 C 184.874 105.020,185.062 104.762,185.191 104.762 C 185.320 104.762,185.699 104.470,186.033 104.113 C 187.070 103.005,187.277 102.787,187.588 102.477 C 188.423 101.642,189.153 100.803,189.153 100.677 C 189.153 100.600,190.165 99.497,191.402 98.227 C 192.639 96.956,193.651 95.826,193.651 95.714 C 193.651 95.487,198.574 90.476,198.798 90.476 C 198.877 90.476,198.942 90.661,198.942 90.887 C 198.942 91.112,201.025 93.377,203.571 95.918 C 206.118 98.460,208.201 100.639,208.201 100.761 C 208.201 100.884,210.165 102.973,212.566 105.403 C 214.967 107.834,216.931 109.889,216.931 109.969 C 216.931 110.049,217.378 110.564,217.923 111.114 C 218.469 111.663,219.177 112.393,219.498 112.736 C 219.818 113.079,220.234 113.512,220.424 113.698 C 220.613 113.884,221.032 114.300,221.355 114.624 C 221.679 114.947,222.079 115.347,222.244 115.513 C 222.410 115.679,222.843 116.112,223.207 116.475 C 223.571 116.839,223.971 117.239,224.096 117.365 C 224.222 117.490,224.630 117.920,225.005 118.320 C 225.379 118.720,225.799 119.048,225.938 119.048 C 226.077 119.048,226.190 119.240,226.190 119.475 C 226.190 119.812,229.840 123.795,231.693 125.481 C 232.208 125.950,233.163 126.914,233.496 127.302 C 233.659 127.491,234.046 127.821,234.356 128.035 C 234.667 128.249,234.921 128.581,234.921 128.774 C 234.921 128.966,236.944 131.151,239.418 133.629 C 241.892 136.106,243.915 138.225,243.915 138.338 C 243.915 138.450,245.939 140.586,248.413 143.083 C 250.886 145.581,252.910 147.717,252.910 147.831 C 252.910 147.945,253.356 148.467,253.902 148.991 C 254.448 149.515,255.872 150.939,257.067 152.155 C 258.262 153.370,259.376 154.501,259.543 154.666 C 259.710 154.832,260.137 155.278,260.491 155.658 C 260.845 156.038,261.241 156.349,261.370 156.349 C 261.499 156.349,261.688 156.611,261.789 156.931 C 261.891 157.251,263.625 159.168,265.643 161.192 C 267.661 163.216,269.312 164.970,269.312 165.090 C 269.312 165.210,269.544 165.382,269.828 165.472 C 270.111 165.562,270.418 165.870,270.508 166.155 C 270.599 166.441,272.748 168.765,275.284 171.319 C 277.819 173.874,279.894 176.060,279.894 176.179 C 279.894 176.297,281.909 178.461,284.372 180.988 C 286.835 183.515,289.306 186.091,289.862 186.712 C 290.418 187.334,291.028 187.989,291.216 188.167 C 291.405 188.346,291.703 188.647,291.878 188.835 C 292.053 189.024,292.477 189.458,292.820 189.798 C 293.164 190.139,293.564 190.536,293.710 190.682 C 293.855 190.827,294.272 191.244,294.636 191.608 C 294.999 191.972,295.416 192.388,295.562 192.534 C 295.707 192.679,296.116 193.109,296.470 193.489 C 296.824 193.869,297.220 194.180,297.349 194.180 C 297.478 194.180,297.667 194.444,297.770 194.767 C 297.938 195.298,302.985 200.610,305.923 203.348 C 306.303 203.703,306.614 204.110,306.614 204.253 C 306.614 204.396,308.697 206.601,311.243 209.153 C 313.790 211.705,315.873 213.885,315.873 213.997 C 315.873 214.109,317.837 216.184,320.238 218.607 C 322.639 221.030,324.603 223.104,324.603 223.215 C 324.603 223.326,324.990 223.781,325.463 224.227 C 325.936 224.672,326.887 225.624,327.576 226.341 C 328.965 227.788,329.040 227.864,330.085 228.909 C 330.489 229.313,330.906 229.730,331.011 229.835 C 331.116 229.940,331.498 230.324,331.858 230.688 C 332.219 231.052,332.669 231.492,332.858 231.667 C 333.388 232.159,333.862 232.764,333.862 232.950 C 333.862 233.043,335.380 234.652,337.235 236.527 C 339.091 238.401,340.752 240.087,340.926 240.272 C 341.101 240.457,341.399 240.752,341.588 240.926 C 342.093 241.395,342.593 242.020,342.593 242.186 C 342.593 242.265,344.676 244.418,347.222 246.969 C 349.769 249.520,351.852 251.702,351.852 251.818 C 351.852 252.074,357.560 257.937,357.808 257.937 C 358.032 257.937,362.963 253.014,362.963 252.790 C 362.963 252.605,363.438 251.999,363.968 251.508 C 364.157 251.334,364.454 251.038,364.629 250.852 C 364.804 250.665,365.632 249.812,366.468 248.955 C 367.305 248.098,367.989 247.323,367.989 247.232 C 367.989 247.049,368.467 246.441,368.994 245.953 C 369.183 245.778,369.616 245.354,369.957 245.010 C 370.297 244.667,370.712 244.250,370.878 244.084 C 371.045 243.919,371.445 243.511,371.768 243.179 C 372.090 242.846,372.622 242.319,372.950 242.007 C 373.277 241.694,373.545 241.348,373.545 241.237 C 373.545 241.126,374.676 239.888,376.058 238.485 C 377.440 237.083,378.571 235.828,378.571 235.697 C 378.571 235.565,379.821 234.213,381.349 232.690 C 382.877 231.168,384.127 229.852,384.127 229.765 C 384.127 229.523,384.898 228.656,386.278 227.344 C 387.207 226.461,389.153 224.340,389.153 224.210 C 389.153 224.123,390.168 223.015,391.409 221.748 C 392.649 220.481,393.899 219.202,394.187 218.906 C 394.474 218.610,394.709 218.277,394.709 218.166 C 394.709 218.055,395.856 216.813,397.258 215.407 C 401.074 211.578,401.267 212.182,393.849 204.732 C 391.994 202.868,390.476 201.266,390.476 201.170 C 390.476 201.074,390.030 200.547,389.484 199.997 C 388.938 199.448,388.230 198.718,387.910 198.375 C 387.590 198.032,387.189 197.616,387.021 197.450 C 386.852 197.284,386.416 196.851,386.052 196.487 C 385.688 196.124,385.272 195.707,385.126 195.562 C 384.981 195.416,384.564 194.999,384.200 194.636 C 383.837 194.272,383.420 193.855,383.274 193.710 C 382.439 192.874,381.746 192.067,381.746 191.929 C 381.746 191.842,380.050 190.054,377.976 187.954 C 375.903 185.855,374.074 183.986,373.911 183.802 C 373.749 183.617,373.362 183.291,373.051 183.077 C 372.741 182.863,372.487 182.525,372.487 182.326 C 372.487 182.128,370.522 180.016,368.122 177.634 C 365.721 175.251,363.757 173.199,363.757 173.074 C 363.757 172.948,361.673 170.738,359.127 168.163 C 356.581 165.588,354.497 163.389,354.497 163.277 C 354.497 163.165,354.051 162.640,353.505 162.109 C 352.960 161.579,352.378 161.005,352.212 160.834 C 352.046 160.663,351.630 160.244,351.286 159.904 C 350.942 159.563,350.516 159.130,350.338 158.941 C 350.160 158.752,349.879 158.462,349.713 158.297 C 349.548 158.131,349.114 157.698,348.751 157.334 C 348.387 156.970,347.970 156.554,347.825 156.408 C 347.679 156.263,347.270 155.833,346.916 155.453 C 346.562 155.073,346.159 154.762,346.020 154.762 C 345.881 154.762,345.767 154.569,345.767 154.334 C 345.767 154.099,343.684 151.832,341.138 149.298 C 338.591 146.763,336.508 144.577,336.508 144.440 C 336.508 144.303,334.544 142.220,332.143 139.811 C 329.742 137.402,327.778 135.345,327.778 135.242 C 327.778 135.089,323.849 131.009,322.441 129.699 C 322.248 129.520,321.351 128.567,320.447 127.583 C 317.320 124.176,315.209 121.914,314.587 121.306 C 314.243 120.969,313.843 120.575,313.698 120.429 C 313.552 120.284,313.136 119.867,312.772 119.503 C 312.408 119.140,311.991 118.723,311.846 118.577 C 311.700 118.432,311.292 118.002,310.937 117.622 C 310.583 117.242,310.180 116.931,310.041 116.931 C 309.902 116.931,309.788 116.744,309.788 116.516 C 309.788 116.287,308.181 114.472,306.216 112.481 C 302.256 108.470,302.445 108.658,301.484 107.763 C 301.105 107.409,300.794 107.005,300.794 106.866 C 300.794 106.727,298.829 104.651,296.429 102.253 C 294.028 99.854,292.063 97.793,292.063 97.672 C 292.063 97.552,289.980 95.347,287.434 92.774 C 284.888 90.200,282.804 88.016,282.804 87.921 C 282.804 87.825,282.001 86.938,281.019 85.949 C 280.036 84.961,279.087 83.997,278.909 83.809 C 278.732 83.620,278.434 83.314,278.248 83.128 C 278.062 82.942,277.612 82.492,277.249 82.128 C 276.885 81.765,276.501 81.381,276.396 81.276 C 276.291 81.171,275.899 80.757,275.524 80.357 C 275.150 79.957,274.738 79.630,274.609 79.630 C 274.480 79.630,274.295 79.379,274.198 79.073 C 274.101 78.767,271.950 76.434,269.418 73.889 C 266.886 71.344,264.815 69.158,264.815 69.032 C 264.815 68.906,262.918 66.897,260.600 64.568 C 258.281 62.239,256.287 60.161,256.168 59.950 C 256.050 59.739,255.328 58.932,254.566 58.156 C 253.803 57.381,253.062 56.627,252.919 56.481 C 252.777 56.336,252.362 55.919,251.999 55.556 C 250.822 54.379,250.688 54.243,248.743 52.256 C 247.688 51.178,246.825 50.212,246.825 50.109 C 246.825 50.006,246.141 49.228,245.304 48.380 C 244.468 47.532,243.651 46.686,243.490 46.501 C 243.329 46.316,242.913 45.900,242.564 45.578 C 242.216 45.255,241.670 44.720,241.350 44.387 C 241.030 44.055,240.614 43.638,240.424 43.460 C 240.234 43.282,239.944 43.001,239.778 42.835 C 239.612 42.669,239.166 42.244,238.786 41.890 C 238.406 41.536,238.095 41.126,238.095 40.979 C 238.095 40.833,236.161 38.756,233.796 36.365 C 229.304 31.823,228.836 31.326,228.836 31.104 C 228.836 31.029,226.872 29.002,224.471 26.599 C 222.070 24.196,220.106 22.145,220.106 22.041 C 220.106 21.937,219.638 21.370,219.066 20.781 C 217.833 19.510,212.348 14.027,211.853 13.571 C 211.327 13.086,210.847 12.475,210.847 12.292 C 210.847 12.201,210.162 11.426,209.325 10.569 C 208.489 9.712,207.659 8.858,207.481 8.672 C 207.303 8.486,207.022 8.198,206.856 8.032 C 206.690 7.866,206.241 7.417,205.857 7.033 C 205.473 6.649,205.056 6.232,204.931 6.107 C 204.806 5.982,204.424 5.598,204.084 5.254 C 203.743 4.911,203.310 4.487,203.121 4.312 C 202.603 3.832,202.116 3.216,202.116 3.041 C 202.116 2.070,199.340 0.223,197.670 0.083 L 195.876 -0.068 194.631 1.125 " stroke="none" fill="#fc0404" fill-rule="evenodd"></path><path id="path1" d="M198.347 132.319 C 197.946 132.768,197.619 133.243,197.619 133.374 C 197.619 133.506,196.667 134.551,195.503 135.698 C 194.339 136.845,193.386 137.879,193.386 137.996 C 193.386 138.113,193.147 138.451,192.855 138.747 C 189.867 141.779,188.657 143.131,188.505 143.611 C 188.405 143.924,188.219 144.180,188.089 144.180 C 187.882 144.180,187.594 144.447,186.322 145.821 C 186.147 146.009,185.850 146.296,185.661 146.457 C 185.166 146.879,184.127 148.126,184.127 148.299 C 184.127 148.379,183.115 149.453,181.878 150.684 C 180.642 151.915,179.630 153.041,179.630 153.185 C 179.630 153.329,178.558 154.509,177.249 155.806 C 175.939 157.103,174.868 158.237,174.868 158.326 C 174.868 158.523,174.416 159.077,173.582 159.904 C 173.238 160.244,172.821 160.659,172.656 160.824 C 172.490 160.990,171.908 161.558,171.362 162.087 C 170.817 162.615,170.370 163.153,170.370 163.282 C 170.370 163.546,169.705 164.298,167.953 166.015 C 167.609 166.352,166.971 167.052,166.534 167.570 C 166.098 168.089,164.848 169.461,163.757 170.619 C 161.550 172.962,161.111 173.465,161.111 173.648 C 161.111 173.716,160.051 174.843,158.754 176.152 C 157.458 177.460,156.321 178.772,156.228 179.067 C 156.134 179.361,155.826 179.676,155.542 179.766 C 155.258 179.856,155.026 180.034,155.026 180.162 C 155.026 180.290,154.431 180.980,153.704 181.696 C 152.976 182.412,152.381 183.079,152.381 183.178 C 152.381 183.333,151.686 184.146,150.779 185.053 C 150.634 185.198,150.220 185.591,149.861 185.925 C 149.501 186.259,149.206 186.638,149.206 186.767 C 149.206 186.896,148.974 187.075,148.691 187.165 C 148.407 187.255,148.101 187.564,148.009 187.851 C 147.918 188.139,146.781 189.455,145.483 190.776 C 144.184 192.097,143.122 193.269,143.122 193.382 C 143.122 193.495,142.110 194.617,140.873 195.877 C 139.636 197.136,138.624 198.341,138.624 198.554 C 138.624 198.767,138.505 198.942,138.360 198.942 C 137.798 198.942,138.146 199.725,139.100 200.608 C 139.542 201.017,140.518 201.993,140.926 202.434 C 141.101 202.623,141.399 202.918,141.588 203.089 C 141.777 203.259,142.288 203.847,142.725 204.394 C 143.161 204.941,146.227 208.110,149.537 211.436 C 152.847 214.762,155.556 217.591,155.556 217.723 C 155.556 217.854,158.264 220.710,161.574 224.069 C 164.884 227.428,167.950 230.597,168.386 231.112 C 168.823 231.627,171.561 234.476,174.471 237.445 C 177.381 240.413,180.595 243.744,181.614 244.848 C 182.632 245.951,183.620 246.997,183.809 247.170 C 183.998 247.344,184.295 247.641,184.470 247.830 C 184.645 248.019,185.069 248.452,185.413 248.793 C 185.757 249.133,186.157 249.531,186.302 249.677 C 186.448 249.822,186.864 250.239,187.228 250.602 C 187.592 250.966,188.009 251.383,188.154 251.528 C 188.300 251.674,188.716 252.091,189.080 252.454 C 189.444 252.818,189.861 253.235,190.006 253.380 C 190.152 253.526,190.560 253.956,190.915 254.336 C 191.269 254.716,191.672 255.026,191.811 255.026 C 191.950 255.026,192.063 255.205,192.063 255.423 C 192.063 256.134,200.669 264.550,201.396 264.550 C 202.109 264.550,202.907 263.885,204.097 262.300 C 204.531 261.721,205.692 260.444,206.676 259.462 C 207.660 258.479,208.466 257.504,208.466 257.295 C 208.466 257.085,208.704 256.838,208.995 256.746 C 209.286 256.654,209.524 256.478,209.524 256.355 C 209.524 256.233,210.343 255.309,211.344 254.302 C 212.344 253.295,213.245 252.213,213.345 251.897 C 213.446 251.581,213.633 251.323,213.762 251.323 C 213.970 251.323,214.258 251.055,215.530 249.682 C 215.705 249.493,216.002 249.207,216.191 249.046 C 216.679 248.630,217.725 247.377,217.725 247.209 C 217.725 247.131,218.737 246.055,219.974 244.819 C 221.210 243.582,222.222 242.457,222.222 242.318 C 222.222 242.179,223.204 241.080,224.405 239.874 C 225.605 238.669,226.825 237.344,227.116 236.930 C 227.407 236.516,227.927 235.907,228.270 235.578 C 230.407 233.530,231.481 232.296,231.481 231.889 C 231.481 231.665,231.595 231.481,231.734 231.481 C 231.873 231.481,232.276 231.171,232.630 230.791 C 233.374 229.993,233.575 229.790,234.428 228.972 C 234.772 228.643,235.291 228.035,235.582 227.622 C 235.873 227.208,237.034 225.938,238.161 224.798 C 239.289 223.659,240.212 222.623,240.212 222.497 C 240.212 222.370,241.283 221.188,242.593 219.870 C 243.902 218.552,244.974 217.406,244.974 217.323 C 244.974 217.093,245.470 216.541,247.553 214.453 C 248.608 213.396,249.471 212.444,249.471 212.338 C 249.471 212.164,250.086 211.435,251.001 210.523 C 251.187 210.337,251.604 209.915,251.926 209.585 C 252.249 209.255,252.900 208.611,253.373 208.154 C 253.846 207.696,254.233 207.217,254.233 207.089 C 254.233 206.961,255.245 205.837,256.481 204.592 C 257.718 203.347,258.730 202.220,258.730 202.088 C 258.730 201.956,259.683 200.905,260.847 199.751 C 263.163 197.457,263.204 197.381,262.434 196.825 C 262.143 196.616,261.905 196.346,261.905 196.227 C 261.905 195.903,260.296 194.218,254.706 188.683 C 254.519 188.497,254.100 188.081,253.777 187.757 C 253.454 187.434,253.037 187.017,252.851 186.831 C 252.665 186.646,252.251 186.229,251.931 185.905 C 251.610 185.582,251.194 185.174,251.005 184.999 C 250.478 184.511,250.000 183.903,250.000 183.720 C 250.000 183.629,249.014 182.558,247.809 181.339 C 246.603 180.120,245.359 178.850,245.044 178.516 C 244.728 178.183,244.349 177.791,244.200 177.646 C 244.051 177.500,243.635 177.083,243.274 176.720 C 242.913 176.356,242.464 175.913,242.275 175.735 C 242.086 175.557,241.796 175.276,241.630 175.110 C 241.464 174.944,241.031 174.511,240.667 174.147 C 240.304 173.784,239.887 173.367,239.741 173.222 C 239.596 173.076,239.166 172.667,238.786 172.313 C 238.406 171.959,238.095 171.556,238.095 171.418 C 238.095 171.229,231.048 163.884,229.096 162.037 C 227.154 160.201,225.397 158.372,225.397 158.188 C 225.397 158.062,222.688 155.207,219.378 151.844 C 216.068 148.482,212.943 145.254,212.434 144.672 C 211.925 144.089,211.243 143.353,210.920 143.036 C 210.597 142.719,210.213 142.341,210.067 142.196 C 209.922 142.050,209.489 141.617,209.105 141.233 C 208.721 140.849,208.304 140.433,208.179 140.307 C 204.300 136.426,201.058 133.034,201.058 132.859 C 201.058 131.625,199.280 131.271,198.347 132.319 " stroke="none" fill="#5c5353" fill-rule="evenodd"></path><path id="path2" d="" stroke="none" fill="#1002c2c" fill-rule="evenodd"></path><path id="path3" d="" stroke="none" fill="#1002c2c" fill-rule="evenodd"></path><path id="path4" d="" stroke="none" fill="#1002c2c" fill-rule="evenodd"></path></g></svg>